<svg xmlns="http://www.w3.org/2000/svg" width="197.282" height="38.392" viewBox="0 0 197.282 38.392">
  <g id="Grupo_465" data-name="Grupo 465" transform="translate(0 0)">
    <g id="Grupo_347" data-name="Grupo 347" transform="translate(0 0)">
      <g id="Grupo_345" data-name="Grupo 345" transform="translate(67.23 6.308)">
        <path id="Trazado_2164" data-name="Trazado 2164" d="M258.59,927.808h4.035L257.069,945.5h-3.752l-3.752-12.079L245.815,945.5h-4.054l-5.147-17.694h4.043l3.424,12.21,3.715-12.21h3.661l3.68,12.2Z" transform="translate(-236.614 -919.668)" fill="#484848"/>
        <path id="Trazado_2165" data-name="Trazado 2165" d="M297.458,917.059a2.442,2.442,0,0,1-4.158-1.716,2.376,2.376,0,0,1,.708-1.717,2.436,2.436,0,0,1,3.468,0,2.38,2.38,0,0,1,.708,1.717A2.347,2.347,0,0,1,297.458,917.059Zm-3.627,21.074V920.439h3.822v17.694Z" transform="translate(-264.636 -912.299)" fill="#484848"/>
        <path id="Trazado_2166" data-name="Trazado 2166" d="M319.673,926.645h-4.388v8.493a2.114,2.114,0,0,0,.5,1.575,2.219,2.219,0,0,0,1.469.531,24.086,24.086,0,0,0,2.424-.017v3.433q-4.389.53-6.3-.761t-1.911-4.76v-8.493h-3.256v-3.68h3.256v-3.822l3.822-1.132v4.954h4.388Z" transform="translate(-272.005 -914.825)" fill="#484848"/>
        <path id="Trazado_2167" data-name="Trazado 2167" d="M341.548,917.059a2.442,2.442,0,0,1-4.158-1.716,2.376,2.376,0,0,1,.708-1.717,2.436,2.436,0,0,1,3.468,0,2.378,2.378,0,0,1,.708,1.717A2.346,2.346,0,0,1,341.548,917.059Zm-3.628,21.074V920.439h3.822v17.694Z" transform="translate(-286.431 -912.299)" fill="#484848"/>
        <path id="Trazado_2168" data-name="Trazado 2168" d="M368.49,913.811h3.822v24.772H368.49v-2.548a7.159,7.159,0,0,1-6.193,3.008,8.3,8.3,0,0,1-6.228-2.707,9.746,9.746,0,0,1,0-13.218,8.327,8.327,0,0,1,6.228-2.69,7.188,7.188,0,0,1,6.193,2.973Zm-9.59,19.977a5.772,5.772,0,0,0,8,0,5.953,5.953,0,0,0,0-8.1,5.771,5.771,0,0,0-8,0,5.953,5.953,0,0,0,0,8.1Z" transform="translate(-294.387 -912.749)" fill="#484848"/>
        <path id="Trazado_2169" data-name="Trazado 2169" d="M402.273,937.833a4.857,4.857,0,0,0,1.946,3.1,6.255,6.255,0,0,0,3.716,1.079,5.188,5.188,0,0,0,4.565-2.194l3.15,1.84a8.76,8.76,0,0,1-7.75,3.857,9.46,9.46,0,0,1-6.972-2.636,9.01,9.01,0,0,1-2.654-6.671,9.1,9.1,0,0,1,2.619-6.635,9.005,9.005,0,0,1,6.724-2.673A8.276,8.276,0,0,1,414,929.622a9.45,9.45,0,0,1,2.495,6.618,11.87,11.87,0,0,1-.142,1.592Zm-.035-3.115h10.4a4.92,4.92,0,0,0-5.061-4.353,5.376,5.376,0,0,0-3.539,1.168A5.267,5.267,0,0,0,402.238,934.718Z" transform="translate(-316.528 -919.218)" fill="#484848"/>
        <path id="Trazado_2170" data-name="Trazado 2170" d="M454.5,927.358h3.822v17.694H454.5V942.5a7.159,7.159,0,0,1-6.193,3.007,8.3,8.3,0,0,1-6.228-2.707,9.745,9.745,0,0,1,0-13.218,8.326,8.326,0,0,1,6.228-2.69,7.188,7.188,0,0,1,6.193,2.974Zm-9.59,12.9a5.772,5.772,0,0,0,8,0,5.952,5.952,0,0,0,0-8.1,5.77,5.77,0,0,0-8,0,5.951,5.951,0,0,0,0,8.1Z" transform="translate(-336.904 -919.218)" fill="#484848"/>
        <path id="Trazado_2171" data-name="Trazado 2171" d="M486.243,937.545V911.711h3.822v25.834Z" transform="translate(-360.013 -911.711)" fill="#484848"/>
      </g>
      <path id="Trazado_2172" data-name="Trazado 2172" d="M318.287,829.16a6.285,6.285,0,0,0-5.443,9.428l12.283,21.275a6.285,6.285,0,0,0,10.887,0l3.846-6.661,3.849,6.663a6.286,6.286,0,0,0,10.887,0l12.277-21.278a6.285,6.285,0,0,0-5.446-9.427Z" transform="translate(-311.992 -824.614)" fill="#32ffd2"/>
      <path id="Trazado_2173" data-name="Trazado 2173" d="M318.287,829.163a6.285,6.285,0,0,0-5.443,9.428l12.283,21.274a6.285,6.285,0,0,0,10.887,0l3.846-6.661V829.163Z" transform="translate(-311.992 -824.617)" fill="#3f19f9"/>
      <g id="Grupo_346" data-name="Grupo 346" transform="translate(18.352)">
        <path id="Trazado_2174" data-name="Trazado 2174" d="M349.581,834.527a9.51,9.51,0,1,1,16.437,0L357.8,848.761Z" transform="translate(-348.284 -820.172)" fill="#41b8f9"/>
        <circle id="Elipse_11" data-name="Elipse 11" cx="3.109" cy="3.109" r="3.109" transform="translate(6.405 6.406)" fill="#fff"/>
      </g>
    </g>
  </g>
</svg>
